<svg id="visual" viewBox="0 0 900 900" width="900" height="900" xmlns="http://www.w3.org/2000/svg" xmlns:xlink="http://www.w3.org/1999/xlink" version="1.1"><g><g transform="translate(277 332)"><path d="M98.9 -79.4C124.4 -46.7 139 -5.9 129.7 27.6C120.5 61 87.4 87 50.1 105.6C12.7 124.2 -29 135.5 -71.5 124.3C-114.1 113.1 -157.4 79.5 -166.7 38.2C-176 -3 -151.1 -51.9 -117.7 -86.4C-84.2 -120.8 -42.1 -140.9 -2.7 -138.8C36.6 -136.6 73.3 -112.1 98.9 -79.4Z" fill="#0f172a"></path></g><g transform="translate(666 604)"><path d="M72.4 -55.5C95.1 -29.3 115.6 0.9 110.4 25.9C105.2 50.9 74.4 70.7 43.3 82.9C12.3 95.2 -19.1 99.9 -48.9 90C-78.7 80 -107.1 55.5 -112.8 26.8C-118.5 -1.8 -101.4 -34.6 -78.8 -60.7C-56.3 -86.8 -28.1 -106.3 -1.6 -105C24.9 -103.7 49.7 -81.6 72.4 -55.5Z" fill="#0f172a"></path></g></g></svg>