<svg id="visual" viewBox="0 0 900 900" width="900" height="900" xmlns="http://www.w3.org/2000/svg" xmlns:xlink="http://www.w3.org/1999/xlink" version="1.1"><path d="M66 0L67.8 12.5C69.7 25 73.3 50 75 75C76.7 100 76.3 125 76.7 150C77 175 78 200 78.5 225C79 250 79 275 78.2 300C77.3 325 75.7 350 75.7 375C75.7 400 77.3 425 74.8 450C72.3 475 65.7 500 65.3 525C65 550 71 575 70.8 600C70.7 625 64.3 650 64.7 675C65 700 72 725 75.2 750C78.3 775 77.7 800 76.3 825C75 850 73 875 72 887.5L71 900L0 900L0 887.5C0 875 0 850 0 825C0 800 0 775 0 750C0 725 0 700 0 675C0 650 0 625 0 600C0 575 0 550 0 525C0 500 0 475 0 450C0 425 0 400 0 375C0 350 0 325 0 300C0 275 0 250 0 225C0 200 0 175 0 150C0 125 0 100 0 75C0 50 0 25 0 12.5L0 0Z" fill="#354560"></path><path d="M55 0L53.3 12.5C51.7 25 48.3 50 46.7 75C45 100 45 125 44.3 150C43.7 175 42.3 200 44 225C45.7 250 50.3 275 52.3 300C54.3 325 53.7 350 50.7 375C47.7 400 42.3 425 39.5 450C36.7 475 36.3 500 38.2 525C40 550 44 575 44.7 600C45.3 625 42.7 650 40.8 675C39 700 38 725 38.7 750C39.3 775 41.7 800 43.5 825C45.3 850 46.7 875 47.3 887.5L48 900L0 900L0 887.5C0 875 0 850 0 825C0 800 0 775 0 750C0 725 0 700 0 675C0 650 0 625 0 600C0 575 0 550 0 525C0 500 0 475 0 450C0 425 0 400 0 375C0 350 0 325 0 300C0 275 0 250 0 225C0 200 0 175 0 150C0 125 0 100 0 75C0 50 0 25 0 12.5L0 0Z" fill="#192436"></path><path d="M19 0L20 12.5C21 25 23 50 22.2 75C21.3 100 17.7 125 17.2 150C16.7 175 19.3 200 22.2 225C25 250 28 275 28.5 300C29 325 27 350 24.5 375C22 400 19 425 17 450C15 475 14 500 15 525C16 550 19 575 19.3 600C19.7 625 17.3 650 16.3 675C15.3 700 15.7 725 18.3 750C21 775 26 800 29 825C32 850 33 875 33.5 887.5L34 900L0 900L0 887.5C0 875 0 850 0 825C0 800 0 775 0 750C0 725 0 700 0 675C0 650 0 625 0 600C0 575 0 550 0 525C0 500 0 475 0 450C0 425 0 400 0 375C0 350 0 325 0 300C0 275 0 250 0 225C0 200 0 175 0 150C0 125 0 100 0 75C0 50 0 25 0 12.5L0 0Z" fill="#141c29"></path></svg>